<svg xmlns="http://www.w3.org/2000/svg" width="51" height="58" viewBox="0 0 51 58" fill="none"><path d="M3.38947 48.0881V34.6361C3.38947 32.1999 2.22434 30.0815 0 30.0815V26.798C2.33026 26.798 3.38947 24.6796 3.38947 22.2434V8.79143C3.38947 3.38947 7.41446 0 11.5454 0H15.5704V3.60131H11.5454C9.21512 3.60131 7.20262 5.71973 7.20262 8.79143V22.5611C7.20262 25.3151 6.35525 27.4335 4.23684 28.2809C6.35525 29.2342 7.20262 31.2467 7.20262 34.0006V47.7703C7.20262 50.7361 9.21512 52.9604 11.5454 52.9604H15.5704V56.5617H11.5454C7.41446 56.5617 3.38947 53.1723 3.38947 47.7703V48.0881Z" fill="#7E489C"></path><path d="M39.2965 53.2783C41.6267 53.2783 43.6392 51.054 43.6392 48.0882V34.3185C43.6392 31.5645 44.4866 29.4461 46.605 28.5987C44.4866 27.6455 43.6392 25.633 43.6392 22.879V9.1093C43.6392 6.0376 41.6267 3.91918 39.2965 3.91918H35.2715V0.317871H39.2965C43.5333 0.317871 47.4524 3.70734 47.4524 9.1093V22.5613C47.4524 24.9974 48.6175 27.1159 50.8419 27.1159V30.3994C48.5116 30.3994 47.4524 32.5178 47.4524 34.954V48.4059C47.4524 53.8079 43.4274 57.1974 39.2965 57.1974H35.2715V53.5961H39.2965V53.2783Z" fill="#7E489C"></path></svg>