<svg xmlns="http://www.w3.org/2000/svg" viewBox="0 0 106 32" fill="none">
  <g clip-path="url(#clip0_9362_2215)">
    <path d="M21.5357 31.7088L15.2591 5.60453C15.061 4.81207 14.8015 4.3029 14.4701 4.04831C14.135 3.79014 13.5765 3.66464 12.7514 3.66464C11.9263 3.66464 11.3678 3.79014 11.0327 4.04831C10.7012 4.30648 10.4418 4.81566 10.2436 5.60453L3.97062 31.7088H0L6.49639 4.67582C6.8531 3.28096 7.61696 2.13711 8.76274 1.28728C9.91213 0.433876 11.2525 0 12.7514 0C14.2503 0 15.5906 0.433876 16.74 1.28728C17.8858 2.14069 18.646 3.28096 19.0064 4.68299L25.5028 31.7088H21.5321H21.5357Z" fill="#EEEFF1"/>
    <path d="M33.9224 0H30.0635V31.7088H33.9224V0Z" fill="#EEEFF1"/>
    <path d="M47.4888 31.7094C44.9306 31.7094 42.9344 31.0138 41.5581 29.644C40.1817 28.2743 39.4827 26.2878 39.4827 23.7419V8.76422H43.3416V23.3475C43.3416 24.6849 43.4425 25.6388 43.6442 26.2627C43.8676 26.9476 44.3 27.428 44.927 27.6862C45.5034 27.9265 46.3862 28.0412 47.6185 28.0412H56.9181V8.76422H60.777V31.7094H47.4888Z" fill="#EEEFF1"/>
    <path d="M66.3457 31.7094V16.7318C66.3457 14.1895 67.0843 12.2065 68.5436 10.8368C70.0101 9.46344 72.1107 8.76422 74.7914 8.76422H79.1439V12.4289H74.4851C73.2528 12.4289 72.3701 12.5472 71.7936 12.7838C71.1667 13.0456 70.7343 13.5225 70.5109 14.2074C70.3055 14.8313 70.2082 15.7851 70.2082 17.1226V31.7058H66.3493L66.3457 31.7094Z" fill="#EEEFF1"/>
    <path d="M90.3302 31.7094C89.3141 31.7094 88.3701 31.4548 87.5198 30.9492C86.6658 30.4437 85.974 29.7552 85.466 28.9054C84.958 28.0627 84.7021 27.1197 84.7021 26.1085C84.7021 24.961 85.0372 23.8961 85.6966 22.9387C86.356 21.9813 87.2315 21.2892 88.3016 20.8805L102.084 15.6166L102.055 15.3405C102.004 14.8779 101.932 14.5086 101.835 14.211C101.612 13.5261 101.179 13.0456 100.552 12.7838C99.9757 12.5436 99.0929 12.4289 97.8607 12.4289H85.1453V8.76422H97.5544C100.235 8.76422 102.336 9.45986 103.802 10.8368C105.261 12.2065 106 14.1895 106 16.7318V27.1591C106 28.4177 105.564 29.4648 104.674 30.3684C103.781 31.2684 102.721 31.7058 101.431 31.7058H90.3374L90.3302 31.7094ZM89.7177 24.459C89.2204 24.6347 88.9142 24.8391 88.7664 25.0937C88.6295 25.3268 88.5647 25.6925 88.5647 26.2376C88.5647 26.9655 88.6836 27.4245 88.9358 27.6755C89.188 27.9265 89.6312 28.0448 90.3338 28.0448H101.428C101.557 28.0448 101.745 28.0089 101.925 27.8296C102.065 27.6898 102.141 27.5177 102.141 27.3348V19.7008L89.7177 24.459Z" fill="#EEEFF1"/>
  </g>
  <defs>
    <clipPath id="clip0_9362_2215">
      <rect width="106" height="31.7094" fill="white"/>
    </clipPath>
  </defs>
</svg>
